<?xml version="1.0" standalone="no"?><!DOCTYPE svg PUBLIC "-//W3C//DTD SVG 1.1//EN" "http://www.w3.org/Graphics/SVG/1.1/DTD/svg11.dtd">
<svg t="1736313970870" class="icon" viewBox="0 0 1024 1024" version="1.1" xmlns="http://www.w3.org/2000/svg" p-id="4383"
     width="16" height="16"><path d="M866.304 167.936l-235.52-136.192C593.92 10.24 552.96 0 512 0s-81.92 10.24-118.784 31.744l-235.52 136.192C82.944 210.944 37.888 289.792 37.888 374.784v273.408c0 86.016 45.056 163.84 118.784 206.848l235.52 136.192C430.08 1013.76 471.04 1024 512 1024c40.96 0 81.92-10.24 118.784-31.744l235.52-136.192c75.776-43.008 121.856-121.856 118.784-206.848V374.784c1.024-84.992-44.032-163.84-118.784-206.848z m-29.696 634.88L600.064 939.008C573.44 954.368 542.72 962.56 512 962.56s-61.44-8.192-88.064-23.552l-235.52-135.168c-54.272-31.744-88.064-91.136-88.064-153.6V374.784c0-63.488 33.792-121.856 88.064-153.6l235.52-136.192C450.56 69.632 481.28 61.44 512 61.44s61.44 8.192 88.064 23.552l235.52 135.168c54.272 31.744 88.064 91.136 88.064 153.6V649.216c2.048 64.512-30.72 121.856-87.04 153.6z" fill="#0075C7" p-id="4384"></path><path d="M765.952 371.712c-41.984-23.552-94.208-15.36-128 19.456L397.312 602.112v-1.024L614.4 353.28c5.12-6.144 10.24-12.288 14.336-19.456 28.672-51.2 9.216-115.712-40.96-143.36s-115.712-9.216-143.36 40.96-9.216 115.712 40.96 143.36c13.312 7.168 28.672 12.288 45.056 13.312L353.28 589.824l-15.36-5.12-98.304 143.36 16.384 11.264 11.264 17.408 149.504-97.28-5.12-16.384L609.28 471.04c0 7.168 2.048 15.36 4.096 22.528 13.312 45.056 54.272 76.8 101.376 76.8 10.24 0 19.456-1.024 29.696-4.096 26.624-7.168 50.176-25.6 63.488-50.176 27.648-51.2 9.216-115.712-41.984-144.384z m-291.84-71.68c-10.24-34.816 10.24-70.656 45.056-80.896 34.816-10.24 70.656 10.24 80.896 45.056 5.12 16.384 3.072 34.816-6.144 49.152-17.408 31.744-57.344 43.008-88.064 25.6-16.384-8.192-27.648-22.528-31.744-38.912z m-143.36 367.616l23.552-34.816 11.264 3.072 3.072 7.168-37.888 24.576z m440.32-172.032c-17.408 31.744-57.344 41.984-89.088 24.576-30.72-17.408-41.984-56.32-25.6-87.04 3.072-5.12 6.144-9.216 9.216-13.312l7.168-6.144c27.648-22.528 68.608-18.432 91.136 10.24 18.432 20.48 20.48 49.152 7.168 71.68z" fill="#0075C7" p-id="4385"></path><path d="M394.24 629.76c0-12.288-10.24-22.528-22.528-22.528s-22.528 10.24-22.528 22.528c0 12.288 10.24 22.528 22.528 22.528 12.288 0 22.528-10.24 22.528-22.528z" fill="#0075C7" p-id="4386"></path></svg>